<svg xmlns="http://www.w3.org/2000/svg" width="282" height="320" viewBox="0 0 282 320">
  <g id="Group_76" data-name="Group 76" transform="translate(-527 -312)">
    <rect id="Rectangle_152" data-name="Rectangle 152" width="282" height="320" rx="36" transform="translate(527 312)" fill="#202020"/>
    <g id="noun_covid-19_testing_kit_3948580" data-name="noun_covid-19 testing kit_3948580" transform="translate(597.479 394.893)">
      <g id="Group_75" data-name="Group 75" transform="translate(19.64 8.255)">
        <path id="Path_146" data-name="Path 146" d="M36.893,8.56H31.368A11.742,11.742,0,0,0,19.64,20.288V31.752a2.471,2.471,0,0,0,2.474,2.474h.841V137.152a8.828,8.828,0,0,0,8.808,8.808h4.717a8.828,8.828,0,0,0,8.808-8.808V34.226h.841A2.471,2.471,0,0,0,48.6,31.752V20.288A11.717,11.717,0,0,0,36.893,8.56Zm-12.3,11.728a6.779,6.779,0,0,1,6.779-6.779h5.526a6.779,6.779,0,0,1,6.779,6.779v8.99H24.588ZM40.357,137.136A3.865,3.865,0,0,1,36.5,141H31.78a3.865,3.865,0,0,1-3.86-3.86V34.21H40.357ZM36.6,74.852v58.589a2.474,2.474,0,0,1-4.948,0V74.852a2.474,2.474,0,0,1,4.948,0Zm-5-13.064V60.4a2.524,2.524,0,1,1,5.047,0v1.386a2.524,2.524,0,0,1-5.047,0Zm0-12.552V47.851a2.524,2.524,0,0,1,5.047,0v1.386a2.524,2.524,0,0,1-5.047,0Zm100.914,82.225L113.049,95.421a7.386,7.386,0,0,0-7.736-3.81L72.406,30.647a4.234,4.234,0,0,0-.082-3.827L63.5,10.474a4.225,4.225,0,1,0-7.439,4.008l8.825,16.346a4.159,4.159,0,0,0,3.15,2.161l32.923,60.964A7.443,7.443,0,0,0,99.9,102.5l19.464,36.041a7.467,7.467,0,0,0,6.581,3.926,7.333,7.333,0,0,0,3.53-.891h0A7.471,7.471,0,0,0,132.512,131.461Zm-5.377,5.773a2.526,2.526,0,0,1-3.414-1.023l-19.464-36.041a2.512,2.512,0,0,1,2.21-3.711,2.748,2.748,0,0,1,.726.1,2.566,2.566,0,0,1,1.5,1.221l19.464,36.041A2.53,2.53,0,0,1,127.135,137.235Z" transform="translate(-19.64 -8.255)" fill="#fd5757"/>
      </g>
    </g>
  </g>
</svg>
