<svg xmlns="http://www.w3.org/2000/svg" width="282" height="320" viewBox="0 0 282 320">
  <g id="Group_77" data-name="Group 77" transform="translate(-224 -156)">
    <rect id="Rectangle_151" data-name="Rectangle 151" width="282" height="320" rx="36" transform="translate(224 156)" fill="#fd5757"/>
    <g id="noun_covid_19_test_4004534" data-name="noun_covid 19 test_4004534" transform="translate(255.757 219.132)">
      <path id="Path_143" data-name="Path 143" d="M78.187,118.987,75.36,98.544l3.915-22.4L71.445,64.4,52.959,55.916l-13.7-2.392L53.611,52l20.661,9.569,8.482,9.569,3.48-11.309L34.907,38.3l.87,2.827-5,3.915.87,6.742-5,1.087-1.087,9.569C9.9,73.968,19.9,85.277,19.9,85.277L57.091,119.2v15.007l5,16.311h9.134l-5.22-17.616Z" transform="translate(20.296 33.012)" fill="#fff"/>
      <path id="Path_144" data-name="Path 144" d="M148.473,20.638C107.15-3.938,76.05,22.6,76.05,22.6l-26.1,20.226v7.83s-13.267,3.915-21.314,5.872c-6.525,1.522-4.35,7.177-4.35,7.177l5.22,1.957-.87-5,30.231-8.482L81.487,69.138,78.659,80.447l7.612,8.917-.87,12.614-6.96,9.787L74.527,133.3l6.742,50.239h47.847l-6.525-22.4,3.915-13.267C126.289,147.433,228.29,68.268,148.473,20.638ZM117.59,98.716c-1.522,2.392-3.915,4.567-6.525,7.177-2.827,2.827-6.09,5.872-8.482,9.569a8.141,8.141,0,0,1-6.96,4.132,10.245,10.245,0,0,1-3.7-.87,7.249,7.249,0,0,1-3.48-4.132,8.4,8.4,0,0,1,1.087-6.742,1.12,1.12,0,0,1,1.957,1.087,7.091,7.091,0,0,0-.87,5,4.415,4.415,0,0,0,2.392,2.827c1.087.652,4.785,1.957,7.612-2.392,2.392-3.7,5.872-6.96,8.917-9.787,2.392-2.392,4.785-4.567,6.09-6.742a9.526,9.526,0,0,0,1.3-7.612c-.87-3.045-3.262-5.872-6.96-7.829a7.414,7.414,0,0,0-6.307-.87c-4.132,1.3-6.742,5.872-6.742,5.872a1.12,1.12,0,0,1-1.957-1.087c.217-.217,3.045-5.437,8.047-6.96a9.708,9.708,0,0,1,8.047,1.087c4.35,2.392,7.177,5.655,8.047,9.352A10.3,10.3,0,0,1,117.59,98.716Z" transform="translate(28.74 0)" fill="#fff"/>
      <path id="Path_145" data-name="Path 145" d="M65.858,54.93c.217,0,.435-.217.652-.217l23.923,10c0,.435.217.652.652.87L102.4,70.154h.435a1.2,1.2,0,0,0,1.087-.652c.217-.652,0-1.087-.652-1.522L91.956,63.412c-.435-.217-.652,0-1.087.217l-23.923-10c0-.435-.217-.652-.652-.87L6.266,27.744c-.652-.217-1.087,0-1.522.652-.217.652,0,1.087.652,1.522L65.423,55.147A.674.674,0,0,1,65.858,54.93Z" transform="translate(6.092 20.515)" fill="#fff"/>
    </g>
  </g>
</svg>
