<svg xmlns="http://www.w3.org/2000/svg" xmlns:xlink="http://www.w3.org/1999/xlink" width="602.258" height="434" viewBox="0 0 602.258 434">
  <defs>
    <linearGradient id="linear-gradient" x1="0.5" y1="1" x2="0.5" gradientUnits="objectBoundingBox">
      <stop offset="0" stop-color="gray" stop-opacity="0.251"/>
      <stop offset="0.54" stop-color="gray" stop-opacity="0.122"/>
      <stop offset="1" stop-color="gray" stop-opacity="0.102"/>
    </linearGradient>
    <linearGradient id="linear-gradient-2" x1="0.5" y1="1" x2="0.5" y2="0" xlink:href="#linear-gradient"/>
  </defs>
  <g id="undraw_doctor_kw-5-l" transform="translate(0.001 -0.015)">
    <path id="Path_147" data-name="Path 147" d="M406.863,143.3c-38.61-1.342-75.412-13.807-110.5-27.442s-69.867-28.745-107.573-35.97c-24.243-4.652-51.968-5.307-71.5,7.691-18.8,12.5-24.869,34.091-28.135,54.119-2.456,15.071-3.882,30.93,2.834,45.042,4.674,9.792,12.97,18.027,18.709,27.409,19.962,32.643,5.85,72.9-15.787,104.8-10.147,14.972-21.919,29.217-29.749,45.136s-11.456,34.157-4.6,50.393c6.793,16.081,22.973,28.18,40.506,36.68,35.61,17.251,77.569,22.186,118.486,25.014,90.572,6.194,181.632,3.51,272.443.826,33.608-1,67.366-2,100.426-7.208,18.36-2.889,37.318-7.469,50.648-18.526,16.918-14.04,21.115-37.806,9.776-55.411-19.019-29.522-71.6-36.858-84.9-68.542-7.314-17.439.2-36.869,10.835-53.044,22.807-34.7,61.045-65.137,63.058-104.8,1.386-27.243-17-54.519-45.419-67.411-29.788-13.524-71.1-11.816-93.073,10.535C480.717,135.615,440.948,144.476,406.863,143.3Z" transform="translate(-56.94 -66.751)" fill="#fd5757" opacity="0.1"/>
    <path id="Path_148" data-name="Path 148" d="M244.229,707.35s-30.5-23.056-36.259-52.384a57.968,57.968,0,0,0-17.86-32,97.6,97.6,0,0,0-14.29-10.646" transform="translate(-109.901 -305.308)" fill="none" stroke="#535461" stroke-miterlimit="10" stroke-width="2"/>
    <path id="Path_149" data-name="Path 149" d="M157.29,576.352c2.673,3.615,3.882,18.936,3.882,18.936s-14.289-5.628-16.968-9.238a8.144,8.144,0,1,1,13.086-9.7Z" transform="translate(-95.103 -287.817)" fill="#fd5757"/>
    <path id="Path_150" data-name="Path 150" d="M202.239,594.55c.277,4.486-7.026,18-7.026,18s-8.944-12.5-9.227-16.984a8.14,8.14,0,1,1,16.248-1.02Z" transform="translate(-114.423 -293.992)" fill="#fd5757"/>
    <path id="Path_151" data-name="Path 151" d="M247.553,653.518c-2.018,4.015-15.155,12-15.155,12s-1.4-15.3.615-19.319a8.139,8.139,0,1,1,14.54,7.32Z" transform="translate(-134.896 -318.405)" fill="#fd5757"/>
    <path id="Path_152" data-name="Path 152" d="M270.676,709.3c-1.314,4.3-12.909,14.384-12.909,14.384s-3.976-14.844-2.662-19.147a8.141,8.141,0,1,1,15.57,4.763Z" transform="translate(-145.105 -343.826)" fill="#fd5757"/>
    <path id="Path_153" data-name="Path 153" d="M173.13,639.727c4.436.6,18.459-5.734,18.459-5.734s-11.833-9.8-16.291-10.4a8.14,8.14,0,1,0-2.168,16.136Z" transform="translate(-105.559 -310.297)" fill="#fd5757"/>
    <path id="Path_154" data-name="Path 154" d="M199.2,703.517c4.436-.76,15.9-10.99,15.9-10.99s-14.228-5.811-18.659-5.052a8.14,8.14,0,1,0,2.773,16.042Z" transform="translate(-116.079 -338.759)" fill="#fd5757"/>
    <path id="Path_155" data-name="Path 155" d="M236.056,761.57c4.5,0,17.528-8.146,17.528-8.146s-13.036-8.135-17.533-8.135a8.14,8.14,0,1,0,0,16.28Z" transform="translate(-133.107 -364.546)" fill="#fd5757"/>
    <path id="Path_156" data-name="Path 156" d="M833.49,359.441s18.8-33.3,47.133-42.891A57.962,57.962,0,0,0,909.967,294.6a97.222,97.222,0,0,0,8.645-15.6" transform="translate(-402.893 -156.815)" fill="none" stroke="#535461" stroke-miterlimit="10" stroke-width="2"/>
    <path id="Path_157" data-name="Path 157" d="M1004.419,256.767c-3.227,3.127-18.249,6.366-18.249,6.366s3.688-14.916,6.915-18.049a8.139,8.139,0,1,1,11.335,11.684Z" transform="translate(-470.911 -140.681)" fill="#fd5757"/>
    <path id="Path_158" data-name="Path 158" d="M988.671,303.649c-4.436.876-18.781-4.569-18.781-4.569s11.2-10.536,15.609-11.395a8.14,8.14,0,1,1,3.172,15.964Z" transform="translate(-463.659 -160.597)" fill="#fd5757"/>
    <path id="Path_159" data-name="Path 159" d="M936.831,356.658c-4.247-1.469-13.9-13.424-13.9-13.424s14.971-3.427,19.23-1.957a8.14,8.14,0,1,1-5.329,15.383Z" transform="translate(-442.738 -184.395)" fill="#fd5757"/>
    <path id="Path_160" data-name="Path 160" d="M883.948,386.7C879.512,385.964,868,375.789,868,375.789s14.19-5.911,18.62-5.179a8.148,8.148,0,0,1-2.645,16.081Z" transform="translate(-418.267 -197.599)" fill="#fd5757"/>
    <path id="Path_161" data-name="Path 161" d="M947.3,280.667c-.006,4.5,8.151,17.544,8.151,17.544s8.146-13.031,8.146-17.522a8.14,8.14,0,1,0-16.275,0Z" transform="translate(-453.595 -153.846)" fill="#fd5757"/>
    <path id="Path_162" data-name="Path 162" d="M887.644,315.348c1.342,4.292,13.009,14.3,13.009,14.3s3.881-14.872,2.529-19.164a8.14,8.14,0,0,0-15.526,4.863Z" transform="translate(-426.893 -168.421)" fill="#fd5757"/>
    <path id="Path_163" data-name="Path 163" d="M834.919,359.224c.6,4.436,10.4,16.286,10.4,16.286s6.327-14,5.728-18.454a8.14,8.14,0,1,0-16.13,2.168Z" transform="translate(-403.484 -188.359)" fill="#fd5757"/>
    <path id="Path_164" data-name="Path 164" d="M1004.419,256.767c-3.227,3.127-18.249,6.366-18.249,6.366s3.688-14.916,6.915-18.049a8.139,8.139,0,1,1,11.335,11.684Z" transform="translate(-470.911 -140.681)" opacity="0.25"/>
    <path id="Path_165" data-name="Path 165" d="M988.671,303.649c-4.436.876-18.781-4.569-18.781-4.569s11.2-10.536,15.609-11.395a8.14,8.14,0,1,1,3.172,15.964Z" transform="translate(-463.659 -160.597)" opacity="0.25"/>
    <path id="Path_166" data-name="Path 166" d="M936.831,356.658c-4.247-1.469-13.9-13.424-13.9-13.424s14.971-3.427,19.23-1.957a8.14,8.14,0,1,1-5.329,15.383Z" transform="translate(-442.738 -184.395)" opacity="0.25"/>
    <path id="Path_167" data-name="Path 167" d="M883.948,386.7C879.512,385.964,868,375.789,868,375.789s14.19-5.911,18.62-5.179a8.148,8.148,0,0,1-2.645,16.081Z" transform="translate(-418.267 -197.599)" opacity="0.25"/>
    <path id="Path_168" data-name="Path 168" d="M947.3,280.667c-.006,4.5,8.151,17.544,8.151,17.544s8.146-13.031,8.146-17.522a8.14,8.14,0,1,0-16.275,0Z" transform="translate(-453.595 -153.846)" opacity="0.25"/>
    <path id="Path_169" data-name="Path 169" d="M887.644,315.348c1.342,4.292,13.009,14.3,13.009,14.3s3.881-14.872,2.529-19.164a8.14,8.14,0,0,0-15.526,4.863Z" transform="translate(-426.893 -168.421)" opacity="0.25"/>
    <path id="Path_170" data-name="Path 170" d="M834.919,359.224c.6,4.436,10.4,16.286,10.4,16.286s6.327-14,5.728-18.454a8.14,8.14,0,1,0-16.13,2.168Z" transform="translate(-403.484 -188.359)" opacity="0.25"/>
    <path id="Path_171" data-name="Path 171" d="M835.44,336.106s3.693-38.061,25.684-58.3a57.984,57.984,0,0,0,17.933-31.961,97.194,97.194,0,0,0,1.6-17.744" transform="translate(-403.761 -134.139)" fill="none" stroke="#535461" stroke-miterlimit="10" stroke-width="2"/>
    <path id="Path_172" data-name="Path 172" d="M929.273,195.96c-1.664,4.17-14.107,13.219-14.107,13.219s-2.673-15.132-.993-19.3a8.142,8.142,0,1,1,15.1,6.1Z" transform="translate(-438.59 -114.841)" fill="#fd5757"/>
    <path id="Path_173" data-name="Path 173" d="M932.279,243.66c-3.676,2.584-19.019,3.432-19.019,3.432s5.978-14.162,9.654-16.746a8.14,8.14,0,1,1,9.366,13.308Z" transform="translate(-438.43 -134.416)" fill="#fd5757"/>
    <path id="Path_174" data-name="Path 174" d="M903.314,313.372c-4.48.377-18.154-6.654-18.154-6.654s12.31-9.2,16.79-9.582a8.141,8.141,0,1,1,1.364,16.225Z" transform="translate(-425.911 -164.882)" fill="#fd5757"/>
    <path id="Path_175" data-name="Path 175" d="M868.114,362.058c-4.353,1.109-19.014-3.477-19.014-3.477s10.574-11.151,14.927-12.282a8.14,8.14,0,0,1,4.087,15.759Z" transform="translate(-409.847 -186.679)" fill="#fd5757"/>
    <path id="Path_176" data-name="Path 176" d="M883.59,242.748c1.819,4.109,14.539,12.754,14.539,12.754s2.163-15.216.344-19.324a8.14,8.14,0,0,0-14.883,6.587Z" transform="translate(-424.935 -135.656)" fill="#fd5757"/>
    <path id="Path_177" data-name="Path 177" d="M842.824,298.145c2.967,3.377,17.683,7.8,17.683,7.8s-2.484-15.166-5.451-18.543a8.14,8.14,0,1,0-12.233,10.741Z" transform="translate(-406.149 -159.325)" fill="#fd5757"/>
    <path id="Path_178" data-name="Path 178" d="M812.713,360.122c2.351,3.826,16.108,10.674,16.108,10.674s.117-15.365-2.218-19.2a8.14,8.14,0,0,0-13.863,8.523Z" transform="translate(-393.166 -187.522)" fill="#fd5757"/>
    <path id="Path_179" data-name="Path 179" d="M784.44,145.882c.92-3.377,2.029-6.77,2.806-10.192C786.314,139.111,785.2,142.516,784.44,145.882Z" transform="translate(-381.041 -92.97)" fill="url(#linear-gradient)"/>
    <path id="Path_180" data-name="Path 180" d="M542.106,144.1c-.078-.133-.133-.266-.194-.388h0c0-.055-.055-.1-.078-.155a3.472,3.472,0,0,1-.372.15c-.244.094-.493.183-.749.255s-.36.111-.555.155a3.228,3.228,0,0,1-.493.128l.044.1c.205-.044.4-.083.61-.139l.055.688c.233,0,.449-.033.66-.033a2.721,2.721,0,0,1,.3,0h1.109C542.328,144.609,542.206,144.348,542.106,144.1ZM654.67,323.275c-2.606-3.51-7.807-41.183-7.807-41.183s-10.231-26.788-7.441-37.479-7.619-38.044-7.619-38.044-6.876-2.989-7.247-7.425c0,0-28.074-8.872-29.389-15.526-1.065-5.456-18.476-9.371-24.731-10.608-1.907-7.7-3.826-14.877-5.24-18.8-.383-1.22-.743-2.273-1.076-3.105-2.39-6.1-9.776-6.654-15.132-6.166a8.253,8.253,0,0,0-1.27-2.9,1.592,1.592,0,0,0-.5-.771,2.952,2.952,0,0,0-.366-.266,1.752,1.752,0,0,0-.377-.477,2.661,2.661,0,0,0-.5-.355,3.325,3.325,0,0,0-.4-.183,5.33,5.33,0,0,0-.993-.272,8.176,8.176,0,0,0-1.2-.155,7.291,7.291,0,0,0,2.556-1.869,5.33,5.33,0,0,0,1.048-1.93,5.679,5.679,0,0,0,.233-1.819,4.7,4.7,0,0,1-.5.715c.233-2.456-1.065-4.952-1.808-7.4a21.886,21.886,0,0,1-.488-9.787h0c.743-4.913,2.584-9.881,3.832-14.883a.364.364,0,0,0,0-.083,38.634,38.634,0,0,0,1.209-7.591,33.5,33.5,0,0,0-3.238-15.049c-1.891-4.175-4.68-8.284-8.95-9.981-3.172-1.281-6.726-1.076-10.142-1.286-7.663-.477-14.972-3.172-22.258-5.623s-14.783-4.68-22.452-4.253-15.559,4.125-19.058,10.913c-1.109,2.118-1.747,4.475-3.072,6.465-2.484,3.754-6.931,5.634-10.641,8.223s-6.976,6.266-8.318,10.652a14.212,14.212,0,0,0-.3,7.292h0a13.064,13.064,0,0,0,.466,1.608,11.4,11.4,0,0,0,2.412,3.943,11.761,11.761,0,0,0,2.739,2.124h0a16.119,16.119,0,0,0,4.048,1.575c-.05.166-.1.344-.155.516-.089.283-.166.554-.25.859-.183.682-.355,1.375-.5,2.074a.652.652,0,0,0,0,.15,45.29,45.29,0,0,0-1.02,9.6,44.314,44.314,0,0,0,.233,4.569h0a46.219,46.219,0,0,0,43.745,41.4c.787.039,1.58.061,2.384.061h1.109c.36.477.715.965,1.054,1.442s.649.965.943,1.442l-.8-.832h0l-.8-.737a6.536,6.536,0,0,1-.726.837,13.489,13.489,0,0,0-1.6-.455h0a20.548,20.548,0,0,0-10.419.693c-4.242,1.27-9.427,3.882-15.493,8.844l-29.56,17.744-15.992,9.726-5.761,14.084s-4.331,16.735-9.149,35.909c-.189.055-.372.111-.555.177a10.378,10.378,0,0,0-1.176-.067,10.807,10.807,0,0,0-10.824,10.375c-9.582,11.645-10.125,23.289-7.874,28.634h0a7.631,7.631,0,0,0,.765,1.425c1.475,2.129,4.231,7.619,7.026,13.469-.072.482-.116.887-.139,1.192a2.952,2.952,0,0,0,0,.3s1.664,25.124-3.882,32.327c-1.214,1.569-1.031,3.632,0,5.917h0c3.715,8.218,18.4,19.191,18.4,19.191s17.617-.094,27.431-1.164c-.028.987-.05,1.968-.072,2.928-.222,9.693-.222,17.816-.222,17.816l-.366,10.164s-3.327,21.42-4.991,27.326c-1.048,3.7.161,38,1.214,63.213h173.57c2.041-14.916-.837-60.235-.837-60.235a119.069,119.069,0,0,1-2.833-21.931.083.083,0,0,1,0-.072c0-.893,0-1.763.033-2.617l1.259-.044,2.262-.078h.205s.055-.211.183-.555h0a10.6,10.6,0,0,1,1.214-2.423,6.011,6.011,0,0,1,4.741-2.917c1.253-.05,3.194-1.065,5.384-2.562a.1.1,0,0,0,.044,0c5.894-3.987,13.685-11.345,15.576-12.554,2.6-1.664,15.055-12.754,15.055-12.754s1.858-2.351,3.837-5.185l.072-.1c2.462-3.549,5.079-7.791,4.436-9.127-1.109-2.4.743-8.123.743-8.123C663.4,340.813,657.276,326.785,654.67,323.275ZM547.446,152.721a2.222,2.222,0,0,1,.1.51c-.139-.183-.277-.377-.416-.555L547,152.5l-.094-.133.211-.288v.039h0a1.925,1.925,0,0,1,.333.6Zm-1.863-4.913c-.6.122-1.081.233-1.392.316-.394-.7-.771-1.4-1.109-2.107a16.084,16.084,0,0,1,2.5,1.791Zm-1.042.876a.117.117,0,0,1,0-.033l.044.033h0c.227.15.449.294.654.444h0c.183.133.349.261.516.394a5.3,5.3,0,0,1-.355.555c-.194-.3-.377-.6-.555-.9A2,2,0,0,1,544.541,148.684Zm-3.327-6.843a16.406,16.406,0,0,1,3.222,0h0a2.438,2.438,0,0,1,.416.05h0a4.61,4.61,0,0,1,.882.227,6.444,6.444,0,0,1,1.17,3.111l-.3.044-.294.055c-.555.094-1.109.189-1.542.277l-.555.116c-.737.161-1.164.283-1.181.288-.072-.15-.144-.288-.222-.432-.122-.238-.25-.482-.36-.721s-.255-.51-.371-.76c-.078-.133-.133-.266-.194-.388h0c0-.055-.055-.1-.078-.155a1.334,1.334,0,0,1-.083-.183c-.338-.688-.649-1.375-.948-2.052-.033-.067-.061-.139-.089-.205l.421-.028v.144Zm-132.3,343.979a137.554,137.554,0,0,0-2.307-25.574c-.71-3.565-1.442-7.131-2.185-10.635-.189-.876-.371-1.741-.555-2.606l-1.708.227h-.155c-4.658-21.964-9.526-41.316-9.526-41.316s-9.67-36.924-8.55-39.869a7.132,7.132,0,0,0-.449-2.928c-2.34-8.4-12.11-31.529-15.526-39.436h0a.312.312,0,0,0-.039-.1h0c-.555-1.325-.954-2.218-1.076-2.479l.8-11.8.044-.71.105-1.508-.044-.039.044-.7s-8.44-6.92-22.735-11.916c-.555-.2-1.142-.394-1.724-.582.715-4.774,1.664-10.164,2.9-15.415.116-.527.244-1.037.377-1.553h0c.116-.516.25-1.015.383-1.519.211-.821.438-1.63.671-2.429.771-.244,1.53-.516,2.279-.8l.288-.111a40.922,40.922,0,0,0,24.953-47.687h0a40.7,40.7,0,0,0-7.142-15.055h0c-.255-.344-.527-.688-.8-1.026s-.6-.715-.9-1.059c1.6-3.643,3.493-7.109,3.649-10.652a10.93,10.93,0,0,0,0-1.347h0v-.055a11.389,11.389,0,0,0-3.565-7.009c-3.432-3.554-8.318-5.356-13.2-6.222s-9.865-.887-14.777-1.469c-8.146-.976-16.081-3.488-24.226-4.259a57.563,57.563,0,0,0-29.294,4.991c-6.061,2.773-12.2,7.619-12.565,14.267-.3,5.5,3.527,10.763,2.562,16.191-.959,5.334-6.393,9.532-5.917,14.927a10.712,10.712,0,0,0,2.617,5.673h0c.466.555.959,1.109,1.469,1.663,1.974,2.09,4.148,4.1,5.251,6.732.044.111.089.222.128.333.937,2.6.516,5.889-1.8,7.38a.084.084,0,0,1,.028.039h0c.033.044.067.078.094.122a.039.039,0,0,0,0-.028,6.066,6.066,0,0,0,3.166,1.974l.471.144c-.383.416-.743.848-1.109,1.3l-.238.316a23.085,23.085,0,0,0-1.663,2.578c-.283.5-.555,1-.782,1.5A18.807,18.807,0,0,0,275,261.093c-.593,3.671.244,7.5-.654,11.09-1.109,4.436-4.619,7.841-6.6,11.961-3.748,7.763-1.625,16.873-.871,25.446,1.026,11.645-.638,23.339-2.3,34.906q-1.32,9.227-2.639,18.47l-6.654,46.4c-.81,5.667-1.769,11.645-5.545,16.02h.039a.049.049,0,0,1-.039.044,11.588,11.588,0,0,0,3.571.92h0c4.93.493,10.153-1.891,14.589-4.5a68.95,68.95,0,0,0,9.942-6.981q-.682,2.5-1.464,5.429a.306.306,0,0,1,0,.055h0c-6.26,23.844-16.33,67.555-16.33,67.555s-.915,1.9-2.1,4.735H414.316c-1.83-2.218-3.532-4.342-4.863-6.055Zm-115.78-220.47c.039-.067.067-.128.105-.189v1.2h0a4.107,4.107,0,0,1-.089.682v.05l.555.205.643.266h0q5.7,2.251,11.545,4.076c.4.128.8.25,1.209.366l.083.688c.1.7.194,1.42.283,2.135v.055c.25,1.98.494,3.954.71,5.883,0,0-10.181-3.882-10.053,2.013a2.873,2.873,0,0,0,0,.316,2.626,2.626,0,0,0,0,.421c.094,4.591,1.53,7.314,1.819,8.711a.393.393,0,0,1-.089.155,3.033,3.033,0,0,0-.244,1.713,16.854,16.854,0,0,0,.233,2.961c-.3.183-.593.366-.887.555h0c-.222.139-.433.294-.649.449a82.344,82.344,0,0,0-5.318-13.707c-1.525-3.138-3.238-6.41-3.222-9.853a5.563,5.563,0,0,1,.028-.676,11.641,11.641,0,0,1,.566-2.933c.128-.36.266-.715.421-1.065A26.106,26.106,0,0,1,292,267.4h0c.288-.521.593-1.037.887-1.558.094-.155.183-.316.272-.471ZM542.106,144.1c-.078-.133-.133-.266-.194-.388h0c0-.055-.055-.1-.078-.155a3.472,3.472,0,0,1-.372.15c-.244.094-.493.183-.749.255s-.36.111-.555.155l-.493.128.044.1c.205-.044.4-.083.61-.139l.055.688c.233,0,.449-.033.66-.033h1.408C542.328,144.609,542.206,144.348,542.106,144.1Z" transform="translate(-142.833 -58.66)" fill="url(#linear-gradient-2)"/>
    <path id="Path_181" data-name="Path 181" d="M538.4,357.24l-3.327,1.469S513.39,442.96,513.39,449.77s45.985,44.7,45.985,44.7l7.175-48.43S556.247,334.977,538.4,357.24Z" transform="translate(-260.288 -190.356)" fill="#e8f5ff"/>
    <path id="Path_182" data-name="Path 182" d="M710.242,258.275l-19.213-10.025a38.487,38.487,0,0,0-5.634-12.837c-2.811-4.059-6.549-8.046-11.206-10.125-11.772-5.279,49.794-32.987,49.794-32.987a100.175,100.175,0,0,0,3.421,9.815c3.172,7.83,8.434,17.955,15.215,20.838C754.147,227.86,710.242,258.275,710.242,258.275Z" transform="translate(-331.257 -118.19)" fill="#ffc1c7"/>
    <path id="Path_183" data-name="Path 183" d="M727.4,202.115a45.9,45.9,0,0,1-42.009,33.3c-2.811-4.059-6.549-8.046-11.206-10.125-11.772-5.279,49.794-32.987,49.794-32.987a100.16,100.16,0,0,0,3.421,9.815Z" transform="translate(-331.257 -118.19)" opacity="0.1"/>
    <path id="Path_184" data-name="Path 184" d="M700.768,147.922a45.658,45.658,0,1,1-13.374-32.492A45.876,45.876,0,0,1,700.768,147.922Z" transform="translate(-302.891 -77.988)" fill="#ffc1c7"/>
    <path id="Path_185" data-name="Path 185" d="M673.909,235.3,661.4,264.489l-11.035,19.374H615.043l-10.3-26.489,4.175-27.47h26.976l17.417-.981,5.883-1.963,3.793,2.151Z" transform="translate(-269.411 -101.104)" fill="#575a89"/>
    <path id="Path_186" data-name="Path 186" d="M754.326,230.473s7.8,1.664.815,7.391-31.091,23.943-31.091,23.943,8.467,7.541,6.715,16.374l28.052-15.637,4.991-25.019S764.368,230.008,754.326,230.473Z" transform="translate(-354.137 -135.187)" opacity="0.1"/>
    <path id="Path_187" data-name="Path 187" d="M715.182,287l-17.844,2.944s3.682,13.613,1.841,17.478a2.591,2.591,0,0,0-.139.372l-7.281,19.679,5.456,15.454L716.1,317.17l-6.438-9.748s6.8-9.016,10.852-12.144S715.182,287,715.182,287Z" transform="translate(-339.752 -160.379)" opacity="0.1"/>
    <path id="Path_188" data-name="Path 188" d="M715.182,285.63l-17.844,2.939s3.682,13.613,1.841,17.478a2.589,2.589,0,0,0-.139.371L691.76,326.1l5.456,15.454L716.1,315.778l-6.438-9.748s6.8-9.016,10.852-12.144S715.182,285.63,715.182,285.63Z" transform="translate(-339.752 -159.768)" fill="#dce6f2"/>
    <path id="Path_189" data-name="Path 189" d="M755.074,227.823s7.8,1.664.81,7.392-31.834,25.413-31.834,25.413,9.2,6.072,7.453,14.9L759.555,259.9l4.991-25.019S765.1,227.358,755.074,227.823Z" transform="translate(-354.137 -134.006)" fill="#575a89"/>
    <path id="Path_190" data-name="Path 190" d="M681.269,273.18s1.7,3.183,9.216,8.922c0,0-12.51,6.654-7.724,16.008l-19.136-4.991-2.944-9.2Z" transform="translate(-325.906 -154.222)" opacity="0.1"/>
    <path id="Path_191" data-name="Path 191" d="M679.943,271.86s1.7,3.183,9.216,8.922c0,0-12.51,6.621-7.724,16l-19.13-4.991L659.36,282.6Z" transform="translate(-325.318 -153.634)" fill="#575a89"/>
    <path id="Path_192" data-name="Path 192" d="M730.849,295.688l-12.51,29.189-11.012,19.374H671.983l-10.3-26.488,4.17-27.47h7.5c-.122,6.41,2.218,13.94,2.068,16.74-.255,4.6,6.865,29.433,6.865,29.433s14.9-24.1,20.783-26.245c3.7-1.347,11.534-12.559,16.851-20.722Z" transform="translate(-326.352 -161.492)" opacity="0.1"/>
    <path id="Path_193" data-name="Path 193" d="M731.519,440.487l-1.27,1.6s9.2,46.173,6.654,56.659a29.769,29.769,0,0,0-.738,5.756v.083c-.449,10.669,2.773,24.514,2.773,24.514s2.573,40.811,1.109,57.6H567.808c-1.009-24.819-2.1-56.975-1.109-60.54,1.664-5.883,4.99-27.226,4.99-27.226l.366-10.114s0-9.776.3-20.666c.128-4.9.316-10.036.588-14.594.349-5.734.837-10.563,1.508-12.937a28.52,28.52,0,0,0,.71-5.478,2.833,2.833,0,0,1,.033-.527c0-.554.055-1.153.078-1.769v-.555c.105-3.571.067-7.807-.05-12.2v-.726c-.094-3.294-.233-6.654-.388-9.848-.482-9.981-1.109-18.421-1.109-18.421L552.57,321l5.7-14.04,15.82-9.693,29.25-17.661c14.267-11.728,23.661-10.319,27.243-9.033a9.47,9.47,0,0,1,1.02.416c.111.055.2.1.283.15a2.349,2.349,0,0,1,.327.189h0a6.753,6.753,0,0,0-2.484,2.046,9.049,9.049,0,0,0-1.536,3.327,15.473,15.473,0,0,0-.394,2.268c-.072.8-.1,1.636-.1,2.473a42.874,42.874,0,0,0,.471,5.484v.122c.183,1.3.41,2.567.632,3.76a.254.254,0,0,0,0,.061c.255,1.392.51,2.678.682,3.787.033.2.061.383.089.555a12.67,12.67,0,0,1,.172,2.218,26.96,26.96,0,0,0,.721,5.323c.144.732.31,1.514.493,2.329.25,1.109.521,2.318.815,3.549.161.676.333,1.375.51,2.068.067.277.139.555.205.837l.111.438c1.181,4.7,2.462,9.371,3.249,12.2.466,1.664.76,2.689.76,2.689s8.351-13.5,15.016-21.187c.1-.111.188-.216.283-.316.66-.76,1.309-1.453,1.93-2.063a11.4,11.4,0,0,1,3.56-2.673,3.877,3.877,0,0,0,.6-.283c2.728-1.547,7.131-7.164,11.251-13.047.4-.555.8-1.159,1.2-1.73.915-1.32,1.8-2.645,2.639-3.915.643-.97,1.259-1.913,1.841-2.811,2.773-4.314,4.724-7.53,4.724-7.53l3.848-.172.671-.033h.449l17.472-.81s.754.128,2,.377a.355.355,0,0,1,.205.044c6.2,1.231,23.422,5.129,24.476,10.536,1.286,6.621,29.067,15.454,29.067,15.454.366,4.436,7.17,7.358,7.17,7.358s10.3,27.226,7.547,37.895c-2.723,10.536,7.087,36.6,7.347,37.329h0l-1.88,2.373Z" transform="translate(-277.743 -152.689)" fill="#e8f5ff"/>
    <path id="Path_194" data-name="Path 194" d="M759.88,226.059s17.007-4.824,20.871,5.107,12.51,50.038,12.51,50.038-22.446,4.231-28.329,0a16.951,16.951,0,0,0-11.961-3.127l-12.693,8.645-3.748-1.109s20.306-30.187,24.72-40.445S767.155,230.323,759.88,226.059Z" transform="translate(-359.697 -132.708)" opacity="0.1"/>
    <path id="Path_195" data-name="Path 195" d="M758.568,222.059s17.018-4.824,20.9,5.107,12.51,50.038,12.51,50.038-22.441,4.231-28.33,0a16.934,16.934,0,0,0-11.955-3.127l-12.7,8.645-3.748-1.109s20.306-30.187,24.72-40.445S765.843,226.334,758.568,222.059Z" transform="translate(-359.122 -130.926)" fill="#e8f5ff"/>
    <path id="Path_196" data-name="Path 196" d="M571.281,511.55s12.693,3.127,15.088,10.3-9.382,7.358-9.382,7.358S569.811,516.518,571.281,511.55Z" transform="translate(-285.99 -260.415)" opacity="0.1"/>
    <path id="Path_197" data-name="Path 197" d="M636.626,607.09s-31.085,63.651-23.91,69.723S636.626,607.09,636.626,607.09Z" transform="translate(-304.059 -302.978)" opacity="0.1"/>
    <path id="Path_198" data-name="Path 198" d="M734,522.5s24.836,61.827,19.868,71.375,10.669,0,10.669,0Z" transform="translate(-358.57 -265.294)" opacity="0.1"/>
    <path id="Path_199" data-name="Path 199" d="M745.04,632.64s-83.885,4.048-59.415,30.17,74.686,1.109,74.686,1.109Z" transform="translate(-335.026 -314.361)" fill="#ffc1c7"/>
    <path id="Path_200" data-name="Path 200" d="M702,147.927a45.66,45.66,0,0,1-3.477,17.533c-.771.089-1.542.144-2.285.177-1.109-2.434-.516-5.246-.494-7.924s-.965-5.828-3.543-6.549c-5.14-1.447-8.689,8.162-13.757,6.427-3.881-1.32-2.867-7.209-5.1-10.608-1.769-2.689-5.312-3.449-8.068-5.135-5.861-3.6-5.684-9.354-8.406-14.8-2.85-5.706-8.872-4.02-14.1-.654-3.97,2.562-7.4,5.994-11.645,8.035a28.806,28.806,0,0,1-11.883,2.512,26.111,26.111,0,0,1-7.452-.787A45.874,45.874,0,0,1,702,147.927Z" transform="translate(-304.126 -77.993)" opacity="0.1"/>
    <path id="Path_201" data-name="Path 201" d="M635.165,108.9c-3.976,2.562-7.4,5.989-11.645,8.04a28.89,28.89,0,0,1-11.883,2.506c-4.99.111-10.364-.765-13.774-4.369-3.133-3.327-3.881-8.445-2.556-12.809a20.8,20.8,0,0,1,8.234-10.608c3.732-2.623,8.062-4.436,10.536-8.19,1.309-1.985,1.941-4.325,3.028-6.438,3.477-6.759,11.3-10.419,18.853-10.874s15.049,1.8,22.247,4.236,14.45,5.124,22.047,5.628c3.382.211,6.9,0,10.036,1.281,4.22,1.713,6.987,5.811,8.872,9.981a33.368,33.368,0,0,1,3.205,14.972c-.466,10.962-7.708,21.72-4.525,32.222.843,2.8,2.423,5.673,1.58,8.473-1.231,4.087-6.5,5.018-10.768,5.212-1.109-2.434-.516-5.251-.494-7.924s-.965-5.828-3.538-6.549c-5.146-1.436-8.695,8.157-13.752,6.427-3.854-1.325-2.856-7.209-5.1-10.608-1.769-2.695-5.318-3.449-8.068-5.135-5.861-3.6-5.684-9.354-8.406-14.8C646.427,103.847,640.4,105.532,635.165,108.9Z" transform="translate(-296.504 -61.97)" fill="#99607e"/>
    <path id="Path_202" data-name="Path 202" d="M513.808,517.307l-4.231,1.475s1.664,25.019-3.882,32.194,18.21,25.014,18.21,25.014,32.56-.183,33.481-2.772-1.663-46.356-1.663-46.356-17.478-6.809-16.008-17.661c0,0-5.334,25.568-13.242,24.465S509.589,525.957,513.808,517.307Z" transform="translate(-256.487 -259.368)" fill="#e8f5ff"/>
    <ellipse id="Ellipse_22" data-name="Ellipse 22" cx="11.162" cy="10.208" rx="11.162" ry="10.208" transform="translate(260.271 261.62)" opacity="0.1"/>
    <path id="Path_203" data-name="Path 203" d="M536.967,481.12s-2.218-67.694-21.526-52.611-19.5,33.12-15.82,38.449,15.465,32.006,15.465,32.006h0a13.491,13.491,0,0,0,19.962-8.872Z" transform="translate(-253.329 -222.444)" fill="#ffc1c7"/>
    <path id="Path_204" data-name="Path 204" d="M665.11,214.5a1.631,1.631,0,0,0-.5-.765c-.954-.871-3.005-1.176-6.1-.909l.128,1.464c4.126-.355,4.941.466,5.046.6v.139l.128.183a6.188,6.188,0,0,1,1.109,4.88c-.9,4.519-6.454,8.118-6.51,8.157l-.133.078-.083.128c-2.4,3.554-15.942,13.585-19.485,16.18l-.31-.355c-1.586,1.375-15.526,13.58-16.28,18.254-.488,2.933-3.793,4.07-4.991,4.386-1.264-.959-5.368-4.225-7.5-7.885-2-3.443,6.055-10.164,6.765-12.787l-1.109-1.137c-.116.421-10.463,10.092-7.586,15.033,2.307,3.965,6.521,7.358,8,8.478-.471,4.281-3.4,29.416-7.913,35.372-5.6,7.4-10.308,44.709-9.787,57.735.46,11.572-2.562,33.431-12.654,42.819a16.175,16.175,0,0,1-13.347,4.436h-.244a39.382,39.382,0,0,1-27.082-8.872c-10.064-8.467-15.764-22.285-16.951-41.083h-.244l-.1-5.473a10.674,10.674,0,1,0-1.591.128h.122l.1,5.44-.488.033c1.22,19.408,7.208,33.764,17.744,42.63a41.033,41.033,0,0,0,28.618,9.366,20.6,20.6,0,0,0,2.218.122,18.188,18.188,0,0,0,12.754-5.129c10.63-9.9,13.862-32.56,13.358-44.526-.555-13.8,4.386-49.766,9.343-56.315,4.857-6.427,7.8-31.468,8.318-36.32,1.758-.494,5.734-2.052,6.41-6.1.488-2.928,9.8-11.95,15.526-16.946l-.172-.2c3.083-2.251,12.67-9.349,17.422-13.907,1.475-1.414,2.939-2.828,4.469-4.175,1.841-1.63,4.181-4.22,4.8-7.281A7.569,7.569,0,0,0,665.11,214.5Z" transform="translate(-261.028 -127.292)" opacity="0.1"/>
    <path id="Path_205" data-name="Path 205" d="M688.958,293.7c-.233-.161-5.756-4.114-8.523-8.872-2.872-4.941,7.475-14.606,7.586-15.027l1.109,1.137c-.7,2.617-8.761,9.343-6.759,12.781,2.523,4.342,7.835,8.14,7.891,8.179Z" transform="translate(-334.483 -152.716)" fill="#353146"/>
    <path id="Path_206" data-name="Path 206" d="M736.065,245.12l-.865-1.192c.177-.128,17.594-12.726,20.339-16.8l.089-.122.128-.083c.055-.039,5.606-3.632,6.51-8.157a6.149,6.149,0,0,0-1.109-4.874l-.128-.189v-.133c-.111-.144-.926-.959-5.052-.6l-.128-1.469c3.1-.266,5.146.039,6.1.909a1.663,1.663,0,0,1,.5.771,7.574,7.574,0,0,1,1.253,5.883c-.615,3.066-2.95,5.656-4.8,7.281-1.525,1.347-2.994,2.773-4.464,4.175C748.874,235.854,736.675,244.682,736.065,245.12Z" transform="translate(-359.104 -126.7)" fill="#e8f5ff"/>
    <rect id="Rectangle_162" data-name="Rectangle 162" width="1.469" height="8.933" transform="translate(264.156 224.363) rotate(-1.05)" fill="#e8f5ff"/>
    <circle id="Ellipse_23" data-name="Ellipse 23" cx="10.73" cy="10.73" r="10.73" transform="translate(253.307 204.229)" fill="#fd5757"/>
    <circle id="Ellipse_24" data-name="Ellipse 24" cx="8.911" cy="8.911" r="8.911" transform="translate(255.126 206.048)" fill="#e8f5ff"/>
    <path id="Path_207" data-name="Path 207" d="M581.24,435.32a20.593,20.593,0,0,1-2.218-.116,41.094,41.094,0,0,1-28.618-9.366c-10.536-8.872-16.513-23.211-17.744-42.636l2.218-.139c1.187,18.8,6.887,32.621,16.957,41.083a39.537,39.537,0,0,0,27.076,8.872h.244a16.208,16.208,0,0,0,13.352-4.436c10.086-9.388,13.108-31.246,12.648-42.819-.555-13.036,4.153-50.343,9.759-57.74,4.907-6.482,7.952-35.7,7.985-35.993l.083-.832.821-.144c.05,0,4.841-.909,5.44-4.491.776-4.669,14.694-16.873,16.275-18.254l1.447,1.664c-5.75,4.991-15.06,14.018-15.526,16.951-.676,4.059-4.652,5.612-6.4,6.1-.555,4.857-3.477,29.893-8.318,36.32-4.957,6.549-9.9,42.514-9.343,56.315.477,11.966-2.723,34.634-13.352,44.526A18.194,18.194,0,0,1,581.24,435.32Z" transform="translate(-268.873 -152.052)" fill="#353146"/>
    <g id="Group_79" data-name="Group 79" transform="translate(298.652 39.52)" opacity="0.1">
      <path id="Path_208" data-name="Path 208" d="M783,152.977c.909-3.36,2.007-6.743,2.773-10.147C784.858,146.251,783.754,149.617,783,152.977Z" transform="translate(-679.051 -135.671)"/>
      <path id="Path_209" data-name="Path 209" d="M690.208,173.631c-1.109-2.434-.516-5.251-.494-7.924s-.965-5.8-3.538-6.549c-5.146-1.436-8.695,8.162-13.752,6.427-3.881-1.325-2.856-7.209-5.1-10.608-1.769-2.695-5.312-3.449-8.062-5.135-5.867-3.6-5.689-9.354-8.406-14.8-2.856-5.711-8.872-4.026-14.107-.654-3.976,2.562-7.4,5.994-11.645,8.04a28.889,28.889,0,0,1-11.883,2.506c-4.963.116-10.364-.765-13.774-4.369a12.875,12.875,0,0,1-3.033-10.646c-.094.261-.177.521-.261.782-1.331,4.364-.555,9.493,2.556,12.809,3.41,3.6,8.811,4.48,13.774,4.369a28.915,28.915,0,0,0,11.888-2.506c4.259-2.052,7.68-5.478,11.645-8.04,5.234-3.371,11.256-5.057,14.107.654,2.717,5.445,2.545,11.2,8.406,14.8,2.773,1.663,6.294,2.44,8.068,5.135,2.218,3.41,1.237,9.282,5.1,10.608,5.052,1.73,8.6-7.863,13.746-6.427,2.573.721,3.565,3.882,3.538,6.549s-.6,5.49.493,7.924c4.264-.194,9.537-1.109,10.774-5.212a5.973,5.973,0,0,0,.233-1.813C698.681,172.661,694.045,173.459,690.208,173.631Z" transform="translate(-595.536 -129.92)"/>
    </g>
    <path id="Path_210" data-name="Path 210" d="M873.551,404.965l6.438,6.809s5.151,37.523,7.724,41.033,8.65,17.472,2.944,27.958c0,0-1.841,5.706-.737,8.1s-8.273,14.35-8.273,14.35-12.327,11.035-14.9,12.693-16.186,14.9-20.783,15.082-6.1,5.889-6.1,5.889l-25.94.92s-14.328-.749-17.445,1.275c0,0,1.664-21.892-14.345-36.242l20.417-7.358s7.73-3.327,10.12-6.8a12.493,12.493,0,0,1,6.1-4.6s5.7-4.048,5.883-6.255,6.97-4.913,6.97-4.913l-3.843-32.8,2.024-54.452s6.438-45.624,20.051-43.046S873.551,404.965,873.551,404.965Z" transform="translate(-380.012 -185.104)" opacity="0.1"/>
    <path id="Path_211" data-name="Path 211" d="M877.551,404.965l6.438,6.809s5.151,37.523,7.724,41.033,8.65,17.472,2.944,27.958c0,0-1.835,5.706-.732,8.1s-8.279,14.35-8.279,14.35S873.32,514.246,870.741,515.9s-16.186,14.9-20.783,15.082-6.1,5.889-6.1,5.889l-25.94.92s-14.339-.749-17.445,1.275c0,0,1.664-21.892-14.345-36.242l20.417-7.358s7.73-3.327,10.12-6.8a12.493,12.493,0,0,1,6.1-4.6s5.7-4.048,5.883-6.255,6.97-4.913,6.97-4.913l-3.843-32.8,2.024-54.452s6.438-45.624,20.051-43.046S877.551,404.965,877.551,404.965Z" transform="translate(-381.794 -185.104)" fill="#e8f5ff"/>
    <path id="Path_212" data-name="Path 212" d="M907.84,552.805s18.947-4.991,23.916,1.109S907.84,552.805,907.84,552.805Z" transform="translate(-436.015 -277.938)" opacity="0.1"/>
    <path id="Path_213" data-name="Path 213" d="M899.88,569.44c6.438,4.508,26.306,4.691,26.306,4.691Z" transform="translate(-432.469 -286.205)" opacity="0.1"/>
    <path id="Path_214" data-name="Path 214" d="M917.46,610.08c.555.183,13.657,14.167,19.158,9.937S917.46,610.08,917.46,610.08Z" transform="translate(-440.301 -304.31)" opacity="0.1"/>
    <path id="Path_215" data-name="Path 215" d="M599.22,398.42s3.848,26.494,1.952,37.285,5.024,24.16,5.024,24.16Z" transform="translate(-298.526 -210.016)" opacity="0.1"/>
    <path id="Path_216" data-name="Path 216" d="M403.311,413.8c-4.436,3.477-7.674,11.706-10.02,20.749-4.092,15.776-5.429,34.069-5.429,34.069s-35.322-8.1-32.749-11.772c1.619-2.312-.555-19.735-2.368-32.366-1.081-7.464-2.046-13.258-2.046-13.258S415.455,404.228,403.311,413.8Z" transform="translate(-187.81 -214.621)" fill="#ffccd0"/>
    <path id="Path_217" data-name="Path 217" d="M403.311,412.47c-4.436,3.482-7.674,11.706-10.02,20.749a40.756,40.756,0,0,1-40.545-10.064c-1.081-7.469-2.046-13.264-2.046-13.264S415.455,402.905,403.311,412.47Z" transform="translate(-187.81 -214.03)" opacity="0.1"/>
    <path id="Path_218" data-name="Path 218" d="M414.167,347.966a40.856,40.856,0,1,1-8.988-25.551A40.856,40.856,0,0,1,414.167,347.966Z" transform="translate(-179.68 -169.344)" fill="#ffccd0"/>
    <path id="Path_219" data-name="Path 219" d="M526.932,806.743H515.287l-.982-20.566-1.026-21.287s2.645-.394,6.859-.982l1.7-.227h.139c.92,4.32,1.83,8.756,2.706,13.186a135.5,135.5,0,0,1,2.268,23.844v1.63C526.987,803.82,526.954,805.3,526.932,806.743Z" transform="translate(-260.239 -372.739)" opacity="0.1"/>
    <path id="Path_220" data-name="Path 220" d="M416.543,684.367H270.51c.632-1.436,1.054-2.307,1.054-2.307s11.683-51.114,17.622-72.74a.28.28,0,0,0,0-.055,86.492,86.492,0,0,1,2.684-8.678h0a2.984,2.984,0,0,1,.261-.555c2.939-4.78,6.621-9.931,1.469-17.289s-3.327-39.736-3.327-39.736,6.255-27.6,12.876-42.314a19.8,19.8,0,0,1,4.2-6.1,17.193,17.193,0,0,1,1.841-1.564h0a16.184,16.184,0,0,1,1.542-1.026l.105-.066a22.246,22.246,0,0,1,9.055-2.811,25.834,25.834,0,0,1,6.793.189,101.385,101.385,0,0,1,26.161,7.208c18.515,8.135,24.121,19.036,24.232,19.263h0l.044.094c.743,1.736,11.611,27.11,15.526,38.948,1.015,3.083,1.569,5.251,1.347,5.844-1.109,2.939,8.462,39.73,8.462,39.73s4.436,17.744,8.872,38.543c.194.865.377,1.73.555,2.606.793,3.776,1.58,7.624,2.34,11.467a134.8,134.8,0,0,1,2.268,24.01Q416.616,680.8,416.543,684.367Z" transform="translate(-152.086 -250.364)" fill="#ff748e"/>
    <path id="Path_221" data-name="Path 221" d="M350,465.412s-10.075-3.882-9.953,2.007,2.456,8.706,1.719,9.565.366,6.011.366,6.011,13.613,0,19.868,2.817,29.311,8.462,32.255,10.181,13.863,9.427,13.863,9.427l.981-14.594s-11.284-9.321-29.8-14.1S350,465.412,350,465.412Z" transform="translate(-183.065 -239.302)" opacity="0.1"/>
    <path id="Path_222" data-name="Path 222" d="M350,464.082s-10.075-3.882-9.953,2.007,2.456,8.706,1.719,9.565.366,6.011.366,6.011,13.613,0,19.868,2.822,29.311,8.462,32.255,10.175,13.863,9.427,13.863,9.427l.993-14.55s-11.284-9.321-29.8-14.1S350,464.082,350,464.082Z" transform="translate(-183.065 -238.709)" fill="#ff748e"/>
    <path id="Path_223" data-name="Path 223" d="M412.85,528.43s19.252,20.844,18.271,26.616S412.85,528.43,412.85,528.43Z" transform="translate(-215.498 -267.935)" opacity="0.1"/>
    <path id="Path_224" data-name="Path 224" d="M437.437,741.85s-7.48,15.21-3.432,14.229S437.437,741.85,437.437,741.85Z" transform="translate(-224.387 -363.014)" fill="none"/>
    <path id="Path_225" data-name="Path 225" d="M340.784,664.22s-14.112,13-18.271,13.741,3.188,3.188,7.968,1.231,14.972-7.109,14.972-7.109Z" transform="translate(-174.706 -328.43)" opacity="0.1"/>
    <path id="Path_226" data-name="Path 226" d="M498.328,805.691h-32.91c-4.6-3.992-8.955-7.691-11.728-9.914-4.436-3.56-7.635-8.8-9.676-13.014-.46-.959-.859-1.858-1.2-2.673a44.557,44.557,0,0,1-1.6-4.3l24.37-14.472a38.1,38.1,0,0,1,3.787,3.7l.294.338c1.353,1.6,2.545,3.41,2.651,4.9.122,1.73,4.935,8.423,9.853,14.849,4.991,6.538,10.1,12.787,10.441,13.208h0s.843,1.148,2.218,2.911C495.805,802.5,497,804.033,498.328,805.691Z" transform="translate(-228.137 -371.688)" fill="#ffccd0"/>
    <path id="Path_227" data-name="Path 227" d="M405.195,322.431a23.77,23.77,0,0,0-2.373,8.318c-.438,8.484.272,27.453-9.122,31.712-4.652,2.1-9.632-2.506-14.733-2.617-3.671-.078-7.037,2.251-9.277,5.162s-3.632,6.366-5.257,9.659a65.982,65.982,0,0,1-5.1,8.595,21.633,21.633,0,0,1-1.885,2.379,40.845,40.845,0,1,1,47.743-63.185Z" transform="translate(-179.696 -169.36)" opacity="0.1"/>
    <path id="Path_228" data-name="Path 228" d="M367.123,315.647c-.444,8.484.272,27.453-9.127,31.706-4.652,2.1-9.632-2.5-14.733-2.612-3.671-.083-7.031,2.251-9.277,5.157s-3.626,6.366-5.257,9.665a66.117,66.117,0,0,1-5.1,8.595,12.479,12.479,0,0,1-4.164,4.153c-3.061,1.6-6.77.7-10.053-.327q-6.388-2.013-12.587-4.536a12.692,12.692,0,0,0,.144-1.885c-.122.233-.255.449-.388.682l-.261.455c-.471.832-.932,1.663-1.353,2.517-.161.327-.316.665-.455,1a12.755,12.755,0,0,0-1.037,3.97c-.283,3.7,1.542,7.208,3.161,10.535,6.227,12.87,10.075,27.919,5.39,41.421-2.029,5.872-5.545,11.09-8.112,16.763a54.158,54.158,0,0,0-3.787,32.039c1.281,6.721,3.848,13.375,3.216,20.189-1.109,11.728-11.223,20.456-21.354,26.455-5.473,3.227-12.171,6.1-17.982,3.549,3.7-4.325,4.658-10.308,5.456-15.953q3.277-23.095,6.571-46.212,1.314-9.2,2.623-18.4c1.63-11.523,3.283-23.173,2.262-34.767-.743-8.545-2.839-17.616.865-25.352,1.957-4.1,5.445-7.491,6.532-11.905.893-3.588.061-7.4.649-11.057a18.82,18.82,0,0,1,1.619-4.791,23.539,23.539,0,0,1,3.715-5.667,6.344,6.344,0,0,1-3.715-2.268c2.384-1.553,2.745-5.052,1.664-7.68s-3.244-4.63-5.19-6.7S273.24,329.9,273,327.07c-.471-5.384,4.907-9.554,5.856-14.866.959-5.406-2.833-10.663-2.529-16.136.355-6.615,6.432-11.423,12.432-14.212a56.559,56.559,0,0,1,28.989-4.99c8.085.765,15.909,3.266,23.971,4.236,4.863.555,9.793.61,14.622,1.464s9.671,2.656,13.07,6.2C378.368,298.108,367.633,305.8,367.123,315.647Z" transform="translate(-144.735 -155.756)" fill="#ffe0d0"/>
    <path id="Path_229" data-name="Path 229" d="M391.06,686.725c-2.828-1.225-7.974-.493-16.807-3.183S363.717,668.7,363.717,668.7v-.039h0c-.105-.277-.926-2.085-6.482-8.417-6.138-6.992-19.408-42.308-19.408-42.308s-11.767-12.637-11.395-17.295-2.09-17.051-1.846-30.913,26.488-23.056,26.488-23.056c50.532-8.955,38.632,49.3,37.285,53.715S394,616.719,394,616.719c-.987,5.19,4.048,13.225,4.048,13.225s1.22,7.109,1.469,9.809a1.663,1.663,0,0,0,.083.366c.81,2.545,7.408,4.852,10.092,6.255,2.822,1.475,11.9,14.351,11.9,14.351C423.554,670.179,393.877,687.967,391.06,686.725Z" transform="translate(-176.169 -275.645)" opacity="0.1"/>
    <path id="Path_230" data-name="Path 230" d="M393.714,682.747c-2.822-1.231-7.974-.494-16.8-3.188s-10.535-14.838-10.535-14.838v-.039h0c-.1-.283-.926-2.085-6.482-8.417-6.138-6.992-19.408-42.314-19.408-42.314s-11.766-12.632-11.4-17.289-2.085-17.051-1.841-30.9,26.472-23.04,26.472-23.04c50.532-8.955,38.632,49.3,37.285,53.715s5.645,16.336,5.645,16.336c-.987,5.19,4.048,13.225,4.048,13.225s1.22,7.109,1.475,9.809a1.393,1.393,0,0,0,.078.366c.81,2.545,7.408,4.852,10.1,6.255,2.817,1.469,11.9,14.351,11.9,14.351C426.214,666.212,396.537,684,393.714,682.747Z" transform="translate(-177.354 -273.885)" fill="#ff748e"/>
    <path id="Path_231" data-name="Path 231" d="M376.8,598.32s22.075,23.289,27.836,23.289S376.8,598.32,376.8,598.32Z" transform="translate(-199.438 -299.071)" opacity="0.1"/>
    <path id="Path_232" data-name="Path 232" d="M425.167,758.56c-2.822-1.231-7.974-.493-16.8-3.188s-10.536-14.838-10.536-14.838v-.039h0c5.85-3.881,20.666-14.844,26.505-18.853a40.907,40.907,0,0,0,9.427-9.682c.81,2.545,7.408,4.852,10.1,6.255,2.817,1.469,11.9,14.35,11.9,14.35C457.666,742.025,427.989,759.813,425.167,758.56Z" transform="translate(-208.807 -349.698)" fill="#ff748e"/>
    <g id="Group_80" data-name="Group 80" transform="translate(109.275 131.523)" opacity="0.1">
      <path id="Path_233" data-name="Path 233" d="M302,406.454c.028.044.067.083.1.128.166-.211.338-.421.516-.621a4.137,4.137,0,0,1-.616.493Z" transform="translate(-275.389 -344.898)"/>
      <path id="Path_234" data-name="Path 234" d="M293.485,443.4c.233-3.078,1.88-5.789,3.421-8.495-1.009-.388-2.018-.782-3.016-1.192a12.569,12.569,0,0,0,.144-1.88c-1.558,2.772-3.255,5.5-3.493,8.622-.283,3.7,1.542,7.209,3.161,10.536,6.233,12.864,10.075,27.914,5.39,41.421-2.035,5.867-5.545,11.09-8.112,16.763a54.136,54.136,0,0,0-3.782,32.034c1.27,6.726,3.843,13.375,3.211,20.189-1.109,11.728-11.218,20.456-21.354,26.45-4.142,2.451-8.983,4.7-13.613,4.536a16.767,16.767,0,0,1-1.431,1.969c5.817,2.567,12.51-.322,17.983-3.56,10.142-5.989,20.273-14.694,21.382-26.444.632-6.815-1.941-13.463-3.216-20.189a54.18,54.18,0,0,1,3.771-32.034c2.551-5.667,6.1-10.9,8.112-16.763,4.686-13.508.837-28.557-5.39-41.421C295.038,450.589,293.2,447.1,293.485,443.4Z" transform="translate(-254.01 -356.423)"/>
      <path id="Path_235" data-name="Path 235" d="M403.8,297.393a16.021,16.021,0,0,0-1.752-1.553c6.721,8.717-2.983,16.125-3.466,25.507-.433,8.484.277,27.459-9.122,31.706-4.647,2.1-9.632-2.5-14.728-2.612-3.676-.078-7.037,2.257-9.282,5.162s-3.626,6.366-5.251,9.659a66.407,66.407,0,0,1-5.1,8.595,12.166,12.166,0,0,1-4.17,4.159c-3.05,1.591-6.759.7-10.048-.333q-4.8-1.508-9.5-3.327a12,12,0,0,1-.144,1.724q6.2,2.529,12.593,4.536c3.283,1.031,6.992,1.924,10.048.333a12.476,12.476,0,0,0,4.17-4.164,65.315,65.315,0,0,0,5.1-8.589c1.63-3.294,3.005-6.759,5.257-9.665s5.606-5.234,9.277-5.157c5.1.111,10.086,4.713,14.733,2.612,9.4-4.247,8.683-23.223,9.122-31.706C402.034,314.416,412.769,306.73,403.8,297.393Z" transform="translate(-288.411 -295.84)"/>
    </g>
    <path id="Path_236" data-name="Path 236" d="M317.687,427.68c-.471.832-.932,1.664-1.353,2.517-.161.327-.316.665-.455,1-2.906-2.928-9.981-9.887-13.929-12.044a23.648,23.648,0,0,1,3.715-5.667S315.075,418.464,317.687,427.68Z" transform="translate(-166.092 -216.73)" opacity="0.1"/>
    <path id="Path_237" data-name="Path 237" d="M317.947,426.044c-2.179-9.865-12.282-15.2-12.282-15.2a23.538,23.538,0,0,0-3.715,5.667c4.164,2.279,11.839,9.92,14.384,12.51Z" transform="translate(-166.092 -215.549)" fill="#ff748e"/>
  </g>
</svg>
